<svg width="637" height="161" viewBox="0 0 637 161" fill="none" xmlns="http://www.w3.org/2000/svg">
<path d="M34.8 116.416L0.0960009 83.296L34.8 50.32H51.36L16.512 83.296L51.36 116.416H34.8ZM92.067 35.632V136H78.963V35.632H92.067ZM163.361 0.351995L123.905 160.48H110.945L150.257 0.351995H163.361ZM177.989 85.744C177.989 75.952 180.197 67.168 184.613 59.392C189.029 51.52 195.029 45.376 202.613 40.96C210.293 36.544 218.789 34.336 228.101 34.336C239.045 34.336 248.597 36.976 256.757 42.256C264.917 47.536 270.869 55.024 274.613 64.72H258.917C256.133 58.672 252.101 54.016 246.821 50.752C241.637 47.488 235.397 45.856 228.101 45.856C221.093 45.856 214.805 47.488 209.237 50.752C203.669 54.016 199.301 58.672 196.133 64.72C192.965 70.672 191.381 77.68 191.381 85.744C191.381 93.712 192.965 100.72 196.133 106.768C199.301 112.72 203.669 117.328 209.237 120.592C214.805 123.856 221.093 125.488 228.101 125.488C235.397 125.488 241.637 123.904 246.821 120.736C252.101 117.472 256.133 112.816 258.917 106.768H274.613C270.869 116.368 264.917 123.808 256.757 129.088C248.597 134.272 239.045 136.864 228.101 136.864C218.789 136.864 210.293 134.704 202.613 130.384C195.029 125.968 189.029 119.872 184.613 112.096C180.197 104.32 177.989 95.536 177.989 85.744ZM339.623 137.008C330.311 137.008 321.815 134.848 314.135 130.528C306.455 126.112 300.359 120.016 295.847 112.24C291.431 104.368 289.223 95.536 289.223 85.744C289.223 75.952 291.431 67.168 295.847 59.392C300.359 51.52 306.455 45.424 314.135 41.104C321.815 36.688 330.311 34.48 339.623 34.48C349.031 34.48 357.575 36.688 365.255 41.104C372.935 45.424 378.983 51.472 383.399 59.248C387.815 67.024 390.023 75.856 390.023 85.744C390.023 95.632 387.815 104.464 383.399 112.24C378.983 120.016 372.935 126.112 365.255 130.528C357.575 134.848 349.031 137.008 339.623 137.008ZM339.623 125.632C346.631 125.632 352.919 124 358.487 120.736C364.151 117.472 368.567 112.816 371.735 106.768C374.999 100.72 376.631 93.712 376.631 85.744C376.631 77.68 374.999 70.672 371.735 64.72C368.567 58.672 364.199 54.016 358.631 50.752C353.063 47.488 346.727 45.856 339.623 45.856C332.519 45.856 326.183 47.488 320.615 50.752C315.047 54.016 310.631 58.672 307.367 64.72C304.199 70.672 302.615 77.68 302.615 85.744C302.615 93.712 304.199 100.72 307.367 106.768C310.631 112.816 315.047 117.472 320.615 120.736C326.279 124 332.615 125.632 339.623 125.632ZM438.57 35.632C449.514 35.632 458.97 37.696 466.938 41.824C475.002 45.856 481.146 51.664 485.37 59.248C489.69 66.832 491.85 75.76 491.85 86.032C491.85 96.304 489.69 105.232 485.37 112.816C481.146 120.304 475.002 126.064 466.938 130.096C458.97 134.032 449.514 136 438.57 136H407.322V35.632H438.57ZM438.57 125.2C451.53 125.2 461.418 121.792 468.234 114.976C475.05 108.064 478.458 98.416 478.458 86.032C478.458 73.552 475.002 63.808 468.09 56.8C461.274 49.792 451.434 46.288 438.57 46.288H420.426V125.2H438.57ZM522.239 46.288V79.84H558.815V90.64H522.239V125.2H563.135V136H509.135V35.488H563.135V46.288H522.239ZM585.411 50.32H601.971L636.819 83.296L601.971 116.416H585.411L620.259 83.296L585.411 50.32Z" fill="#F27200"/>
</svg>
