<svg id="visual" viewBox="0 0 1400 900" width="1400" height="900" xmlns="http://www.w3.org/2000/svg" xmlns:xlink="http://www.w3.org/1999/xlink" version="1.1"><rect x="0" y="0" width="1400" height="900" fill="#ffffff"></rect><path d="M0 647L58.3 668.3C116.7 689.7 233.3 732.3 350 747.2C466.7 762 583.3 749 700 735.5C816.7 722 933.3 708 1050 709.3C1166.7 710.7 1283.3 727.3 1341.7 735.7L1400 744L1400 901L1341.7 901C1283.3 901 1166.7 901 1050 901C933.3 901 816.7 901 700 901C583.3 901 466.7 901 350 901C233.3 901 116.7 901 58.3 901L0 901Z" fill="#f27700" stroke-linecap="round" stroke-linejoin="miter"></path></svg>